<svg xmlns="http://www.w3.org/2000/svg" xmlns:xlink="http://www.w3.org/1999/xlink" xmlns:lucid="lucid" width="867.57" height="1921.5"><g transform="translate(-535.4330708661416 81.50000000000023)" lucid:page-tab-id="0_0"><path d="M0-1258.84h1870.87v3840.5H0z" fill="#fff"/><path d="M715.43 60c0 11.05-8.95 20-20 20-11.04 0-20-8.95-20-20s8.96-20 20-20c11.05 0 20 8.95 20 20z" stroke="#666"/><path d="M695.43 81v82.62" stroke="#333" fill="none"/><path d="M695.4 80.5l.5-.02V81h-.94v-.56z" stroke="#333" stroke-width=".05" fill="#333"/><path d="M695.43 178.38l-4.63-14.26h9.27z" stroke="#333" fill="#333"/><path d="M631.43 180c-8.83 0-16 7.16-16 16v48c0 8.84 7.17 16 16 16h128c8.84 0 16-7.16 16-16v-48c0-8.84-7.16-16-16-16z" stroke="#000" stroke-opacity="0" fill="#00c2a8"/><use xlink:href="#a" transform="matrix(1,0,0,1,623.4330708661416,188) translate(28.59259259259259 26.488888888888887)"/><use xlink:href="#b" transform="matrix(1,0,0,1,623.4330708661416,188) translate(105.53086419753087 26.488888888888887)"/><use xlink:href="#c" transform="matrix(1,0,0,1,623.4330708661416,188) translate(50.296296296296305 47.822222222222216)"/><path d="M631.43 369.75c-8.83 0-16 7.16-16 16v48c0 8.84 7.17 16 16 16h128c8.84 0 16-7.16 16-16v-48c0-8.84-7.16-16-16-16z" stroke="#000" stroke-opacity="0" fill="#00c2a8"/><use xlink:href="#d" transform="matrix(1,0,0,1,623.4330708661416,377.7500249999999) translate(11.33333333333334 26.488888888888887)"/><use xlink:href="#e" transform="matrix(1,0,0,1,623.4330708661416,377.7500249999999) translate(39.48148148148148 47.822222222222216)"/><use xlink:href="#f" transform="matrix(1,0,0,1,623.4330708661416,377.7500249999999) translate(64.17283950617283 47.822222222222216)"/><path d="M695.43 260.5v92.87" stroke="#333" fill="none"/><path d="M695.9 260.5h-.94v-.5h.95z" stroke="#333" stroke-width=".05" fill="#333"/><path d="M695.43 368.13l-4.63-14.26h9.27z" stroke="#333" fill="#333"/><path d="M635.43 554.88c-11.04 0-20 8.95-20 20v60c0 11.04 8.96 20 20 20h120c11.05 0 20-8.96 20-20v-60c0-11.05-8.95-20-20-20z" stroke="#000" stroke-opacity="0" fill="#00c2a8"/><use xlink:href="#d" transform="matrix(1,0,0,1,623.4330708661416,562.8750124999999) translate(11.33333333333334 25.822222222222223)"/><use xlink:href="#e" transform="matrix(1,0,0,1,623.4330708661416,562.8750124999999) translate(27.11111111111111 47.15555555555556)"/><use xlink:href="#g" transform="matrix(1,0,0,1,623.4330708661416,562.8750124999999) translate(51.80246913580247 47.15555555555556)"/><use xlink:href="#h" transform="matrix(1,0,0,1,623.4330708661416,562.8750124999999) translate(43.407407407407405 68.4888888888889)"/><path d="M695.43 450.25v88.24" stroke="#333" fill="none"/><path d="M695.9 450.26h-.94v-.5h.95z" stroke="#333" stroke-width=".05" fill="#333"/><path d="M695.43 553.26L690.8 539h9.27z" stroke="#333" fill="#333"/><path d="M635.43 765.13c-11.04 0-20 8.95-20 20v60c0 11.04 8.96 20 20 20h120c11.05 0 20-8.96 20-20v-60c0-11.05-8.95-20-20-20z" stroke="#000" stroke-opacity="0" fill="#00c2a8"/><use xlink:href="#i" transform="matrix(1,0,0,1,623.4330708661416,773.1249875000001) translate(34.51851851851852 36.48888888888889)"/><use xlink:href="#j" transform="matrix(1,0,0,1,623.4330708661416,773.1249875000001) translate(99.60493827160495 36.48888888888889)"/><use xlink:href="#k" transform="matrix(1,0,0,1,623.4330708661416,773.1249875000001) translate(27.950617283950617 57.822222222222216)"/><path d="M695.43 655.38v93.36" stroke="#333" fill="none"/><path d="M695.9 655.4h-.94v-.52h.95z" stroke="#333" stroke-width=".05" fill="#333"/><path d="M695.43 763.5l-4.63-14.26h9.27z" stroke="#333" fill="#333"/><path d="M635.43 970.24c-11.04 0-20 8.95-20 20v60c0 11.04 8.96 20 20 20h120c11.05 0 20-8.96 20-20v-60c0-11.05-8.95-20-20-20z" stroke="#000" stroke-opacity="0" fill="#00c2a8"/><use xlink:href="#l" transform="matrix(1,0,0,1,623.4330708661416,978.2371308281993) translate(31.012345679012345 36.48888888888889)"/><use xlink:href="#m" transform="matrix(1,0,0,1,623.4330708661416,978.2371308281993) translate(93.23456790123458 36.48888888888889)"/><use xlink:href="#n" transform="matrix(1,0,0,1,623.4330708661416,978.2371308281993) translate(39.90123456790124 57.822222222222216)"/><path d="M695.43 865.63v88.22" stroke="#333" fill="none"/><path d="M695.9 865.64h-.94v-.5h.95z" stroke="#333" stroke-width=".05" fill="#333"/><path d="M695.43 968.62l-4.63-14.27h9.27z" stroke="#333" fill="#333"/><path d="M635.43 1185.13c-11.04 0-20 8.95-20 20v60c0 11.04 8.96 20 20 20h120c11.05 0 20-8.96 20-20v-60c0-11.05-8.95-20-20-20z" stroke="#000" stroke-opacity="0" fill="#00c2a8"/><use xlink:href="#o" transform="matrix(1,0,0,1,623.4330708661416,1193.1249875) translate(17.753086419753085 25.822222222222223)"/><use xlink:href="#p" transform="matrix(1,0,0,1,623.4330708661416,1193.1249875) translate(55.23456790123457 47.15555555555556)"/><use xlink:href="#q" transform="matrix(1,0,0,1,623.4330708661416,1193.1249875) translate(29.11111111111111 68.4888888888889)"/><path d="M695.43 1070.74v98" stroke="#333" fill="none"/><path d="M695.9 1070.75h-.94v-.5h.95z" stroke="#333" stroke-width=".05" fill="#333"/><path d="M695.43 1183.5l-4.63-14.26h9.27z" stroke="#333" fill="#333"/><path d="M901.43 775.13c-8.83 0-16 7.16-16 16v48c0 8.83 7.17 16 16 16h128c8.84 0 16-7.17 16-16v-48c0-8.84-7.16-16-16-16z" stroke="#000" stroke-opacity="0" fill="#00c2a8"/><use xlink:href="#r" transform="matrix(1,0,0,1,893.4330708661416,783.1249875000001) translate(19.679012345679016 26.488888888888887)"/><use xlink:href="#m" transform="matrix(1,0,0,1,893.4330708661416,783.1249875000001) translate(104.5679012345679 26.488888888888887)"/><use xlink:href="#s" transform="matrix(1,0,0,1,893.4330708661416,783.1249875000001) translate(37.48148148148148 47.822222222222216)"/><path d="M901.43 969.75c-8.83 0-16 7.16-16 16v48c0 8.84 7.17 16 16 16h128c8.84 0 16-7.16 16-16v-48c0-8.84-7.16-16-16-16z" stroke="#000" stroke-opacity="0" fill="#00c2a8"/><use xlink:href="#a" transform="matrix(1,0,0,1,893.4330708661416,977.7500249999998) translate(28.59259259259259 26.488888888888887)"/><use xlink:href="#b" transform="matrix(1,0,0,1,893.4330708661416,977.7500249999998) translate(105.53086419753087 26.488888888888887)"/><use xlink:href="#c" transform="matrix(1,0,0,1,893.4330708661416,977.7500249999998) translate(50.296296296296305 47.822222222222216)"/><path d="M965.43 855.63v97.74" stroke="#333" fill="none"/><path d="M965.9 855.64h-.94v-.5h.95z" stroke="#333" stroke-width=".05" fill="#333"/><path d="M965.43 968.13l-4.63-14.26h9.27z" stroke="#333" fill="#333"/><path d="M905.43 1154.88c-11.04 0-20 8.95-20 20v60c0 11.04 8.96 20 20 20h120c11.05 0 20-8.96 20-20v-60c0-11.05-8.95-20-20-20z" stroke="#000" stroke-opacity="0" fill="#00c2a8"/><use xlink:href="#t" transform="matrix(1,0,0,1,893.4330708661416,1162.8750125) translate(14.962962962962958 25.822222222222223)"/><use xlink:href="#b" transform="matrix(1,0,0,1,893.4330708661416,1162.8750125) translate(119.16049382716051 25.822222222222223)"/><use xlink:href="#u" transform="matrix(1,0,0,1,893.4330708661416,1162.8750125) translate(23.18518518518518 47.15555555555556)"/><use xlink:href="#v" transform="matrix(1,0,0,1,893.4330708661416,1162.8750125) translate(24.666666666666668 68.4888888888889)"/><use xlink:href="#w" transform="matrix(1,0,0,1,893.4330708661416,1162.8750125) translate(54.24691358024692 68.4888888888889)"/><path d="M965.43 1050.25v88.24" stroke="#333" fill="none"/><path d="M965.9 1050.26h-.94v-.5h.95z" stroke="#333" stroke-width=".05" fill="#333"/><path d="M965.43 1153.26L960.8 1139h9.27z" stroke="#333" fill="#333"/><path d="M905.43 1365.13c-11.04 0-20 8.95-20 20v60c0 11.04 8.96 20 20 20h120c11.05 0 20-8.96 20-20v-60c0-11.05-8.95-20-20-20z" stroke="#000" stroke-opacity="0" fill="#00c2a8"/><use xlink:href="#x" transform="matrix(1,0,0,1,893.4330708661416,1373.1249875000003) translate(17.753086419753085 47.15555555555556)"/><path d="M965.43 1255.38v93.36" stroke="#333" fill="none"/><path d="M965.9 1255.4h-.94v-.53h.95z" stroke="#333" stroke-width=".05" fill="#333"/><path d="M965.43 1363.5l-4.63-14.26h9.27z" stroke="#333" fill="#333"/><path d="M905.43 1575.38c-11.04 0-20 8.95-20 20v60c0 11.04 8.96 20 20 20h120c11.05 0 20-8.96 20-20v-60c0-11.05-8.95-20-20-20z" stroke="#000" stroke-opacity="0" fill="#00c2a8"/><use xlink:href="#y" transform="matrix(1,0,0,1,893.4330708661416,1583.3749625000005) translate(25.604938271604933 36.48888888888889)"/><use xlink:href="#b" transform="matrix(1,0,0,1,893.4330708661416,1583.3749625000005) translate(108.51851851851853 36.48888888888889)"/><use xlink:href="#z" transform="matrix(1,0,0,1,893.4330708661416,1583.3749625000005) translate(33.70370370370371 57.822222222222216)"/><path d="M965.43 1465.63v93.36" stroke="#333" fill="none"/><path d="M965.9 1465.64h-.94v-.52h.95z" stroke="#333" stroke-width=".05" fill="#333"/><path d="M965.43 1573.76l-4.63-14.27h9.27z" stroke="#333" fill="#333"/><path d="M1171.43 772c-8.83 0-16 7.18-16 16v48c0 8.85 7.17 16 16 16h128c8.84 0 16-7.15 16-16v-48c0-8.82-7.16-16-16-16z" stroke="#000" stroke-opacity="0" fill="#00c2a8"/><use xlink:href="#a" transform="matrix(1,0,0,1,1163.4330708661416,780.0139858830835) translate(28.59259259259259 26.488888888888887)"/><use xlink:href="#b" transform="matrix(1,0,0,1,1163.4330708661416,780.0139858830835) translate(105.53086419753087 26.488888888888887)"/><use xlink:href="#c" transform="matrix(1,0,0,1,1163.4330708661416,780.0139858830835) translate(50.296296296296305 47.822222222222216)"/><path d="M1171.43 961.76c-8.83 0-16 7.17-16 16v48c0 8.84 7.17 16 16 16h128c8.84 0 16-7.16 16-16v-48c0-8.83-7.16-16-16-16z" stroke="#000" stroke-opacity="0" fill="#00c2a8"/><use xlink:href="#d" transform="matrix(1,0,0,1,1163.4330708661416,969.7640108830833) translate(11.33333333333334 26.488888888888887)"/><use xlink:href="#e" transform="matrix(1,0,0,1,1163.4330708661416,969.7640108830833) translate(39.48148148148148 47.822222222222216)"/><use xlink:href="#f" transform="matrix(1,0,0,1,1163.4330708661416,969.7640108830833) translate(64.17283950617283 47.822222222222216)"/><path d="M1235.43 852.5v92.88" stroke="#333" fill="none"/><path d="M1235.9 852.53h-.94V852h.95z" stroke="#333" stroke-width=".05" fill="#333"/><path d="M1235.43 960.15l-4.63-14.27h9.27z" stroke="#333" fill="#333"/><path d="M1175.43 1146.9c-11.04 0-20 8.94-20 20v60c0 11.03 8.96 20 20 20h120c11.05 0 20-8.97 20-20v-60c0-11.06-8.95-20-20-20z" stroke="#000" stroke-opacity="0" fill="#00c2a8"/><use xlink:href="#A" transform="matrix(1,0,0,1,1163.4330708661416,1154.8889983830834) translate(15.777777777777775 25.822222222222223)"/><use xlink:href="#m" transform="matrix(1,0,0,1,1163.4330708661416,1154.8889983830834) translate(108.46913580246914 25.822222222222223)"/><use xlink:href="#B" transform="matrix(1,0,0,1,1163.4330708661416,1154.8889983830834) translate(23.654320987654312 47.15555555555556)"/><use xlink:href="#C" transform="matrix(1,0,0,1,1163.4330708661416,1154.8889983830834) translate(110.46913580246915 47.15555555555556)"/><use xlink:href="#D" transform="matrix(1,0,0,1,1163.4330708661416,1154.8889983830834) translate(47.1358024691358 68.4888888888889)"/><path d="M1235.43 1042.26v88.25" stroke="#333" fill="none"/><path d="M1235.9 1042.28h-.94v-.52h.95z" stroke="#333" stroke-width=".05" fill="#333"/><path d="M1235.43 1145.27l-4.63-14.26h9.27z" stroke="#333" fill="#333"/><path d="M1175.43 1357.14c-11.04 0-20 8.95-20 20v60c0 11.04 8.96 20 20 20h120c11.05 0 20-8.96 20-20v-60c0-11.05-8.95-20-20-20z" stroke="#000" stroke-opacity="0" fill="#00c2a8"/><g><use xlink:href="#x" transform="matrix(1,0,0,1,1163.4330708661416,1365.1389733830836) translate(17.753086419753085 47.15555555555556)"/></g><path d="M1235.43 1247.4v93.36" stroke="#333" fill="none"/><path d="M1235.9 1247.4h-.94v-.5h.95z" stroke="#333" stroke-width=".05" fill="#333"/><path d="M1235.43 1355.52l-4.63-14.26h9.27z" stroke="#333" fill="#333"/><path d="M775.93 815.13h93.12" stroke="#333" fill="none"/><path d="M775.95 815.6h-.52v-.95h.52z" stroke="#333" stroke-width=".05" fill="#333"/><path d="M883.82 815.13l-14.27 4.63v-9.27z" stroke="#333" fill="#333"/><path d="M695.43 1285.63v117.5a12 12 0 0 0 12 12h161.62" stroke="#333" fill="none"/><path d="M695.9 1285.64h-.94v-.52h.95z" stroke="#333" stroke-width=".05" fill="#333"/><path d="M883.82 1415.13l-14.27 4.63v-9.27z" stroke="#333" fill="#333"/><path d="M1045.93 1415.13h93.12" stroke="#333" fill="none"/><path d="M1045.95 1415.6h-.52v-.95h.52z" stroke="#333" stroke-width=".05" fill="#333"/><path d="M1153.82 1415.13l-14.27 4.63v-9.27z" stroke="#333" fill="#333"/><path d="M1255.43 1625.38c0 8.4-8.95 15.2-20 15.2-11.04 0-20-6.8-20-15.2 0-8.4 8.96-15.2 20-15.2 11.05 0 20 6.8 20 15.2z" stroke="#666" fill="#fff"/><path d="M1247.43 1625.38c0 5.03-5.37 9.1-12 9.1-6.62 0-12-4.07-12-9.1 0-5.04 5.38-9.12 12-9.12 6.63 0 12 4.08 12 9.12z" stroke="#666"/><path d="M1045.93 1625.38h152.62" stroke="#333" fill="none"/><path d="M1045.95 1625.85h-.52v-.95h.52z" stroke="#333" stroke-width=".05" fill="#333"/><path d="M1213.32 1625.38l-14.27 4.63v-9.26z" stroke="#333" fill="#333"/><g><path d="M830.43-58.5v1877" stroke="#5e5e5e" stroke-width="3" stroke-linecap="round" fill="none"/></g><g><path d="M1100.43-58.5v1877" stroke="#5e5e5e" stroke-width="3" stroke-linecap="round" fill="none"/></g><g><path d="M556.93-58.5v1877" stroke="#5e5e5e" stroke-width="3" stroke-linecap="round" fill="none"/></g><g><path d="M1381.5-58.5v1877" stroke="#5e5e5e" stroke-width="3" stroke-linecap="round" fill="none"/></g><path d="M559.93 1818.5h821.57M556.93-58.5h821.57" stroke="#5e5e5e" stroke-width="3" stroke-linecap="round" fill="none"/><path d="M573.68-54a6 6 0 0 1 6-6h228a6 6 0 0 1 6 6v48a6 6 0 0 1-6 6h-228a6 6 0 0 1-6-6z" stroke="#000" stroke-opacity="0" stroke-width="3" fill="#fff" fill-opacity="0"/><g><use xlink:href="#E" transform="matrix(1,0,0,1,578.6830708661417,-55.00000000000023) translate(84.19753086419753 30.27777777777778)"/></g><path d="M845.43-51a6 6 0 0 1 6-6h228a6 6 0 0 1 6 6v48a6 6 0 0 1-6 6h-228a6 6 0 0 1-6-6z" stroke="#000" stroke-opacity="0" stroke-width="3" fill="#fff" fill-opacity="0"/><g><use xlink:href="#F" transform="matrix(1,0,0,1,850.4330708661416,-52) translate(42.90123456790124 30.27777777777778)"/></g><path d="M1120.97-51a6 6 0 0 1 6-6h228a6 6 0 0 1 6 6v48a6 6 0 0 1-6 6h-228a6 6 0 0 1-6-6z" stroke="#000" stroke-opacity="0" stroke-width="3" fill="#fff" fill-opacity="0"/><g><use xlink:href="#G" transform="matrix(1,0,0,1,1125.966535433071,-52) translate(89.72222222222223 30.27777777777778)"/></g><defs><path fill="#fff" d="M125-24c46 0 70-25 89-51l25 16C214-24 183 4 123 4 8 4-5-146 60-208c32-50 158-61 191-5 5 7 9 14 11 22l-32 10c-9-28-33-43-69-43-74 0-108 51-108 125 0 46 24 75 72 75" id="H"/><path fill="#fff" d="M165-48c-4 18 1 34 23 27l-3 20c-29 8-62 0-52-35h-2C116-14 99 4 63 4 30 4 8-16 8-49c0-68 71-67 138-67 10-26 0-56-31-54-26 1-42 9-47 31l-32-5c8-67 160-71 144 15-5 28-9 54-15 81zM42-50c3 52 80 24 89-6 7-12 7-24 11-38-47 1-103-4-100 44" id="I"/><path fill="#fff" d="M133-28C103 26-5 8 13-77c13-62 24-115 90-117 29-1 46 15 56 35l19-102h32L160 0h-30zM45-64c-2 27 10 43 35 43 54-1 69-50 69-103 0-29-15-46-42-46-53-1-58 58-62 106" id="J"/><path fill="#fff" d="M55-144c13 50 104 24 104 88C159 21 15 23 1-39l26-10c6 40 102 42 102-4-13-50-104-23-104-87 0-71 143-71 148-8l-29 4c-5-35-85-37-89 0" id="K"/><path fill="#fff" d="M51-54c-9 22 5 41 31 30L79-1C43 14 10-4 19-52l22-115H19l5-23h22l19-43h21l-9 43h35l-4 23H73" id="L"/><path fill="#fff" d="M66-151c12-25 30-51 66-40l-6 26C45-176 58-65 38 0H6l36-190h30" id="M"/><path fill="#fff" d="M30-147c31-64 166-65 159 27C183-49 158 1 86 4 9 8 1-88 30-147zM88-20c53 0 68-48 68-100 0-31-11-51-44-50-52 1-68 46-68 97 0 32 13 53 44 53" id="N"/><g id="a"><use transform="matrix(0.04938271604938272,0,0,0.04938271604938272,0,0)" xlink:href="#H"/><use transform="matrix(0.04938271604938272,0,0,0.04938271604938272,12.790123456790125,0)" xlink:href="#I"/><use transform="matrix(0.04938271604938272,0,0,0.04938271604938272,22.66666666666667,0)" xlink:href="#J"/><use transform="matrix(0.04938271604938272,0,0,0.04938271604938272,32.543209876543216,0)" xlink:href="#I"/><use transform="matrix(0.04938271604938272,0,0,0.04938271604938272,42.41975308641976,0)" xlink:href="#K"/><use transform="matrix(0.04938271604938272,0,0,0.04938271604938272,51.308641975308646,0)" xlink:href="#L"/><use transform="matrix(0.04938271604938272,0,0,0.04938271604938272,56.24691358024692,0)" xlink:href="#M"/><use transform="matrix(0.04938271604938272,0,0,0.04938271604938272,62.12345679012346,0)" xlink:href="#N"/></g><path fill="#fff" d="M111-194c62-3 86 47 72 106H45c-7 38 6 69 45 68 27-1 43-14 53-32l24 11C152-15 129 4 87 4 38 3 12-23 12-71c0-70 32-119 99-123zm44 81c14-66-71-72-95-28-4 8-8 17-11 28h106" id="O"/><use transform="matrix(0.04938271604938272,0,0,0.04938271604938272,0,0)" xlink:href="#O" id="b"/><path fill="#fff" d="M11 0l48-248h34L50-27h125l-5 27H11" id="P"/><path fill="#fff" d="M103-194c29 0 47 14 56 36 2-11 5-23 8-32h30L160-5C157 61 82 97 21 62 9 55 4 45 1 30l28-7c7 42 83 31 92-3 4-16 9-38 13-55-13 20-29 36-62 36-40 0-60-25-60-64 0-71 23-131 91-131zm4 24c-53 0-58 54-61 104-2 27 10 44 36 44 49 0 65-50 67-102 1-29-15-46-42-46" id="Q"/><path fill="#fff" d="M50-231l6-30h32l-6 30H50zM6 0l37-190h31L37 0H6" id="R"/><path fill="#fff" d="M67-158c22-48 132-52 116 29L158 0h-32l25-140c3-38-53-32-70-12C52-117 51-52 38 0H6l36-190h30" id="S"/><g id="c"><use transform="matrix(0.04938271604938272,0,0,0.04938271604938272,0,0)" xlink:href="#P"/><use transform="matrix(0.04938271604938272,0,0,0.04938271604938272,9.876543209876544,0)" xlink:href="#N"/><use transform="matrix(0.04938271604938272,0,0,0.04938271604938272,19.75308641975309,0)" xlink:href="#Q"/><use transform="matrix(0.04938271604938272,0,0,0.04938271604938272,29.629629629629633,0)" xlink:href="#R"/><use transform="matrix(0.04938271604938272,0,0,0.04938271604938272,33.53086419753087,0)" xlink:href="#S"/></g><path fill="#fff" d="M52-101C46-14 166-7 216-51l9-45h-74l6-28h105l-18 87C217-12 181 4 130 4 60 4 18-31 18-101c0-106 78-167 188-146 30 6 48 27 59 54l-34 9c-10-26-31-41-67-40-75 1-107 50-112 123" id="T"/><path fill="#fff" d="M44-68c0 29 11 47 38 47 30 0 42-19 51-41l28 9C148-21 126 4 82 4 31 4 10-29 12-85c3-77 74-140 146-93 12 8 15 23 18 40l-31 5c-1-22-13-36-36-36-52 0-65 49-65 101" id="U"/><path fill="#fff" d="M248-111c6-24 9-61-24-58-72 9-57 108-77 169h-31l26-142c3-37-50-30-64-10C52-115 50-51 37 0H6l36-190h30c-1 10-6 24-4 32 13-43 101-52 105 5 13-22 29-41 61-41 90 0 28 129 23 194h-31" id="V"/><g id="d"><use transform="matrix(0.04938271604938272,0,0,0.04938271604938272,0,0)" xlink:href="#T"/><use transform="matrix(0.04938271604938272,0,0,0.04938271604938272,13.827160493827162,0)" xlink:href="#O"/><use transform="matrix(0.04938271604938272,0,0,0.04938271604938272,23.703703703703706,0)" xlink:href="#M"/><use transform="matrix(0.04938271604938272,0,0,0.04938271604938272,29.58024691358025,0)" xlink:href="#O"/><use transform="matrix(0.04938271604938272,0,0,0.04938271604938272,39.4567901234568,0)" xlink:href="#S"/><use transform="matrix(0.04938271604938272,0,0,0.04938271604938272,49.33333333333334,0)" xlink:href="#U"/><use transform="matrix(0.04938271604938272,0,0,0.04938271604938272,58.22222222222223,0)" xlink:href="#R"/><use transform="matrix(0.04938271604938272,0,0,0.04938271604938272,62.12345679012346,0)" xlink:href="#I"/><use transform="matrix(0.04938271604938272,0,0,0.04938271604938272,72,0)" xlink:href="#V"/><use transform="matrix(0.04938271604938272,0,0,0.04938271604938272,86.76543209876543,0)" xlink:href="#O"/><use transform="matrix(0.04938271604938272,0,0,0.04938271604938272,96.64197530864197,0)" xlink:href="#S"/><use transform="matrix(0.04938271604938272,0,0,0.04938271604938272,106.51851851851853,0)" xlink:href="#L"/><use transform="matrix(0.04938271604938272,0,0,0.04938271604938272,111.45679012345678,0)" xlink:href="#N"/></g><g id="e"><use transform="matrix(0.04938271604938272,0,0,0.04938271604938272,0,0)" xlink:href="#J"/><use transform="matrix(0.04938271604938272,0,0,0.04938271604938272,9.876543209876544,0)" xlink:href="#O"/></g><path fill="#fff" d="M238-179c0 84-86 86-175 82L45 0H11l48-248c82 0 179-12 179 69zm-34 1c0-53-64-42-116-43l-19 98c63 0 135 9 135-55" id="W"/><path fill="#fff" d="M76-167L44 0H12l33-167H18l4-23h27c3-47 25-81 82-69l-4 24c-35-8-44 15-46 45h37l-5 23H76" id="X"/><path fill="#fff" d="M6 0l50-261h32L37 0H6" id="Y"/><g id="f"><use transform="matrix(0.04938271604938272,0,0,0.04938271604938272,0,0)" xlink:href="#W"/><use transform="matrix(0.04938271604938272,0,0,0.04938271604938272,11.851851851851853,0)" xlink:href="#O"/><use transform="matrix(0.04938271604938272,0,0,0.04938271604938272,21.7283950617284,0)" xlink:href="#M"/><use transform="matrix(0.04938271604938272,0,0,0.04938271604938272,27.604938271604947,0)" xlink:href="#X"/><use transform="matrix(0.04938271604938272,0,0,0.04938271604938272,32.543209876543216,0)" xlink:href="#R"/><use transform="matrix(0.04938271604938272,0,0,0.04938271604938272,36.44444444444445,0)" xlink:href="#Y"/></g><path fill="#fff" d="M51-231l6-30h31l-6 30H51zM33 24C28 60 2 84-40 72c3-12-1-29 18-22C-5 49-1 37 2 19l41-209h32" id="Z"/><g id="g"><use transform="matrix(0.04938271604938272,0,0,0.04938271604938272,0,0)" xlink:href="#W"/><use transform="matrix(0.04938271604938272,0,0,0.04938271604938272,11.851851851851853,0)" xlink:href="#M"/><use transform="matrix(0.04938271604938272,0,0,0.04938271604938272,17.728395061728396,0)" xlink:href="#N"/><use transform="matrix(0.04938271604938272,0,0,0.04938271604938272,27.60493827160494,0)" xlink:href="#Z"/><use transform="matrix(0.04938271604938272,0,0,0.04938271604938272,31.506172839506174,0)" xlink:href="#O"/><use transform="matrix(0.04938271604938272,0,0,0.04938271604938272,41.38271604938272,0)" xlink:href="#L"/><use transform="matrix(0.04938271604938272,0,0,0.04938271604938272,46.320987654320994,0)" xlink:href="#N"/><use transform="matrix(0.04938271604938272,0,0,0.04938271604938272,56.19753086419754,0)" xlink:href="#K"/></g><path fill="#fff" d="M194-120c59 52 2 134-86 124-53-6-90-18-98-63l31-7c8 30 29 43 70 43 46 0 84-17 71-62-32-43-135-20-137-98-3-89 178-90 191-16l-30 9c-8-48-127-53-127 5 0 53 81 35 115 65" id="aa"/><g id="h"><use transform="matrix(0.04938271604938272,0,0,0.04938271604938272,0,0)" xlink:href="#aa"/><use transform="matrix(0.04938271604938272,0,0,0.04938271604938272,11.851851851851853,0)" xlink:href="#N"/><use transform="matrix(0.04938271604938272,0,0,0.04938271604938272,21.7283950617284,0)" xlink:href="#U"/><use transform="matrix(0.04938271604938272,0,0,0.04938271604938272,30.617283950617285,0)" xlink:href="#R"/><use transform="matrix(0.04938271604938272,0,0,0.04938271604938272,34.518518518518526,0)" xlink:href="#I"/><use transform="matrix(0.04938271604938272,0,0,0.04938271604938272,44.39506172839507,0)" xlink:href="#R"/><use transform="matrix(0.04938271604938272,0,0,0.04938271604938272,48.296296296296305,0)" xlink:href="#K"/></g><path fill="#fff" d="M89 0H52L20-190h33L74-25l89-165h34" id="ab"/><g id="i"><use transform="matrix(0.04938271604938272,0,0,0.04938271604938272,0,0)" xlink:href="#H"/><use transform="matrix(0.04938271604938272,0,0,0.04938271604938272,12.790123456790125,0)" xlink:href="#N"/><use transform="matrix(0.04938271604938272,0,0,0.04938271604938272,22.66666666666667,0)" xlink:href="#S"/><use transform="matrix(0.04938271604938272,0,0,0.04938271604938272,32.543209876543216,0)" xlink:href="#ab"/><use transform="matrix(0.04938271604938272,0,0,0.04938271604938272,41.4320987654321,0)" xlink:href="#R"/><use transform="matrix(0.04938271604938272,0,0,0.04938271604938272,45.333333333333336,0)" xlink:href="#L"/><use transform="matrix(0.04938271604938272,0,0,0.04938271604938272,50.27160493827161,0)" xlink:href="#O"/></g><use transform="matrix(0.04938271604938272,0,0,0.04938271604938272,0,0)" xlink:href="#I" id="j"/><path fill="#fff" d="M119 0H84L31-248h34l41 218 126-218h36" id="ac"/><path fill="#fff" d="M67 3c-93-2-31-127-26-193h32L48-50c-3 39 53 32 70 12 30-34 30-101 43-152h32L157 0h-30c1-10 6-24 4-33-14 20-29 37-64 36" id="ad"/><path fill="#fff" d="M166-48c-4 18 1 34 23 27l-3 20c-29 8-62 0-52-35h-2C117-14 100 4 64 4 31 4 9-16 9-49c0-68 71-67 138-67 10-26 0-56-31-54-26 1-42 9-47 31l-32-5c8-67 160-71 144 15-5 28-9 54-15 81zM43-50c3 52 80 24 89-6 7-12 7-24 11-38-47 1-103-4-100 44zm52-161c10-23 31-35 45-54h38l-1 5-66 49H95" id="ae"/><g id="k"><use transform="matrix(0.04938271604938272,0,0,0.04938271604938272,0,0)" xlink:href="#ac"/><use transform="matrix(0.04938271604938272,0,0,0.04938271604938272,11.209876543209878,0)" xlink:href="#N"/><use transform="matrix(0.04938271604938272,0,0,0.04938271604938272,21.086419753086425,0)" xlink:href="#Y"/><use transform="matrix(0.04938271604938272,0,0,0.04938271604938272,24.98765432098766,0)" xlink:href="#ad"/><use transform="matrix(0.04938271604938272,0,0,0.04938271604938272,34.8641975308642,0)" xlink:href="#S"/><use transform="matrix(0.04938271604938272,0,0,0.04938271604938272,44.74074074074075,0)" xlink:href="#L"/><use transform="matrix(0.04938271604938272,0,0,0.04938271604938272,49.67901234567902,0)" xlink:href="#ae"/><use transform="matrix(0.04938271604938272,0,0,0.04938271604938272,59.55555555555556,0)" xlink:href="#M"/><use transform="matrix(0.04938271604938272,0,0,0.04938271604938272,65.4320987654321,0)" xlink:href="#R"/><use transform="matrix(0.04938271604938272,0,0,0.04938271604938272,69.33333333333334,0)" xlink:href="#N"/><use transform="matrix(0.04938271604938272,0,0,0.04938271604938272,79.20987654320989,0)" xlink:href="#K"/></g><path fill="#fff" d="M166-48c-4 18 1 34 23 27l-3 20c-29 8-62 0-52-35h-2C117-14 100 4 64 4 31 4 9-16 9-49c0-68 71-67 138-67 10-26 0-56-31-54-26 1-42 9-47 31l-32-5c8-67 160-71 144 15-5 28-9 54-15 81zM43-50c3 52 80 24 89-6 7-12 7-24 11-38-47 1-103-4-100 44zm150-208c-8 21-15 46-44 47-22 0-30-19-50-21-14 0-21 10-25 21H58c8-21 14-47 44-47 22 0 32 18 50 21 13-1 21-10 25-21h16" id="af"/><g id="l"><use transform="matrix(0.04938271604938272,0,0,0.04938271604938272,0,0)" xlink:href="#T"/><use transform="matrix(0.04938271604938272,0,0,0.04938271604938272,13.827160493827162,0)" xlink:href="#O"/><use transform="matrix(0.04938271604938272,0,0,0.04938271604938272,23.703703703703706,0)" xlink:href="#K"/><use transform="matrix(0.04938271604938272,0,0,0.04938271604938272,32.592592592592595,0)" xlink:href="#L"/><use transform="matrix(0.04938271604938272,0,0,0.04938271604938272,37.53086419753087,0)" xlink:href="#af"/><use transform="matrix(0.04938271604938272,0,0,0.04938271604938272,47.40740740740741,0)" xlink:href="#N"/></g><g id="m"><use transform="matrix(0.04938271604938272,0,0,0.04938271604938272,0,0)" xlink:href="#J"/><use transform="matrix(0.04938271604938272,0,0,0.04938271604938272,9.876543209876544,0)" xlink:href="#O"/></g><path fill="#fff" d="M11 0l48-248h184l-5 28H87l-15 79h140l-5 27H67L50-27h158l-5 27H11" id="ag"/><g id="n"><use transform="matrix(0.04938271604938272,0,0,0.04938271604938272,0,0)" xlink:href="#ag"/><use transform="matrix(0.04938271604938272,0,0,0.04938271604938272,11.851851851851853,0)" xlink:href="#ab"/><use transform="matrix(0.04938271604938272,0,0,0.04938271604938272,20.74074074074074,0)" xlink:href="#O"/><use transform="matrix(0.04938271604938272,0,0,0.04938271604938272,30.617283950617285,0)" xlink:href="#S"/><use transform="matrix(0.04938271604938272,0,0,0.04938271604938272,40.49382716049383,0)" xlink:href="#L"/><use transform="matrix(0.04938271604938272,0,0,0.04938271604938272,45.4320987654321,0)" xlink:href="#N"/><use transform="matrix(0.04938271604938272,0,0,0.04938271604938272,55.308641975308646,0)" xlink:href="#K"/></g><path fill="#fff" d="M44-68c0 29 11 47 38 47 30 0 42-19 51-41l28 9C148-21 126 4 82 4 31 4 10-29 12-85c3-77 74-140 146-93 12 8 15 23 18 40l-31 5c-1-22-13-36-36-36-52 0-65 49-65 101zM85 43c0-13-18-15-31-12L71 0h19L80 17c16 1 28 8 28 24 0 34-40 36-72 32l4-16c19 4 44 4 45-14" id="ah"/><g id="o"><use transform="matrix(0.04938271604938272,0,0,0.04938271604938272,0,0)" xlink:href="#H"/><use transform="matrix(0.04938271604938272,0,0,0.04938271604938272,12.790123456790125,0)" xlink:href="#N"/><use transform="matrix(0.04938271604938272,0,0,0.04938271604938272,22.66666666666667,0)" xlink:href="#V"/><use transform="matrix(0.04938271604938272,0,0,0.04938271604938272,37.4320987654321,0)" xlink:href="#ad"/><use transform="matrix(0.04938271604938272,0,0,0.04938271604938272,47.308641975308646,0)" xlink:href="#S"/><use transform="matrix(0.04938271604938272,0,0,0.04938271604938272,57.18518518518519,0)" xlink:href="#R"/><use transform="matrix(0.04938271604938272,0,0,0.04938271604938272,61.086419753086425,0)" xlink:href="#U"/><use transform="matrix(0.04938271604938272,0,0,0.04938271604938272,69.97530864197532,0)" xlink:href="#I"/><use transform="matrix(0.04938271604938272,0,0,0.04938271604938272,79.85185185185186,0)" xlink:href="#ah"/><use transform="matrix(0.04938271604938272,0,0,0.04938271604938272,88.74074074074075,0)" xlink:href="#af"/><use transform="matrix(0.04938271604938272,0,0,0.04938271604938272,98.61728395061729,0)" xlink:href="#N"/></g><g id="p"><use transform="matrix(0.04938271604938272,0,0,0.04938271604938272,0,0)" xlink:href="#U"/><use transform="matrix(0.04938271604938272,0,0,0.04938271604938272,8.88888888888889,0)" xlink:href="#N"/><use transform="matrix(0.04938271604938272,0,0,0.04938271604938272,18.765432098765434,0)" xlink:href="#V"/></g><g id="q"><use transform="matrix(0.04938271604938272,0,0,0.04938271604938272,0,0)" xlink:href="#ab"/><use transform="matrix(0.04938271604938272,0,0,0.04938271604938272,8.88888888888889,0)" xlink:href="#N"/><use transform="matrix(0.04938271604938272,0,0,0.04938271604938272,18.765432098765434,0)" xlink:href="#Y"/><use transform="matrix(0.04938271604938272,0,0,0.04938271604938272,22.666666666666668,0)" xlink:href="#ad"/><use transform="matrix(0.04938271604938272,0,0,0.04938271604938272,32.543209876543216,0)" xlink:href="#S"/><use transform="matrix(0.04938271604938272,0,0,0.04938271604938272,42.41975308641976,0)" xlink:href="#L"/><use transform="matrix(0.04938271604938272,0,0,0.04938271604938272,47.35802469135803,0)" xlink:href="#ae"/><use transform="matrix(0.04938271604938272,0,0,0.04938271604938272,57.23456790123457,0)" xlink:href="#M"/><use transform="matrix(0.04938271604938272,0,0,0.04938271604938272,63.111111111111114,0)" xlink:href="#R"/><use transform="matrix(0.04938271604938272,0,0,0.04938271604938272,67.01234567901236,0)" xlink:href="#N"/><use transform="matrix(0.04938271604938272,0,0,0.04938271604938272,76.8888888888889,0)" xlink:href="#K"/></g><path fill="#fff" d="M249-183c0 48-29 72-75 77L221 0h-36l-43-103H65L45 0H11l48-248c83 2 190-17 190 65zm-34 3c0-55-74-39-127-41l-18 92c63-1 145 13 145-51" id="ai"/><path fill="#fff" d="M67-162c32-53 139-36 121 50C175-51 163 2 97 4 68 4 52-11 42-31 38 6 28 39 22 75H-9l50-265h29c-1 10 0 20-3 28zm89 36c0-26-10-43-35-43-54 0-67 50-69 103-1 29 14 45 42 46 53 0 62-58 62-106" id="aj"/><g id="r"><use transform="matrix(0.04938271604938272,0,0,0.04938271604938272,0,0)" xlink:href="#ai"/><use transform="matrix(0.04938271604938272,0,0,0.04938271604938272,12.790123456790125,0)" xlink:href="#O"/><use transform="matrix(0.04938271604938272,0,0,0.04938271604938272,22.66666666666667,0)" xlink:href="#U"/><use transform="matrix(0.04938271604938272,0,0,0.04938271604938272,31.555555555555557,0)" xlink:href="#O"/><use transform="matrix(0.04938271604938272,0,0,0.04938271604938272,41.4320987654321,0)" xlink:href="#aj"/><use transform="matrix(0.04938271604938272,0,0,0.04938271604938272,51.308641975308646,0)" xlink:href="#ah"/><use transform="matrix(0.04938271604938272,0,0,0.04938271604938272,60.19753086419754,0)" xlink:href="#af"/><use transform="matrix(0.04938271604938272,0,0,0.04938271604938272,70.07407407407408,0)" xlink:href="#N"/></g><g id="s"><use transform="matrix(0.04938271604938272,0,0,0.04938271604938272,0,0)" xlink:href="#H"/><use transform="matrix(0.04938271604938272,0,0,0.04938271604938272,12.790123456790125,0)" xlink:href="#N"/><use transform="matrix(0.04938271604938272,0,0,0.04938271604938272,22.66666666666667,0)" xlink:href="#S"/><use transform="matrix(0.04938271604938272,0,0,0.04938271604938272,32.543209876543216,0)" xlink:href="#ab"/><use transform="matrix(0.04938271604938272,0,0,0.04938271604938272,41.4320987654321,0)" xlink:href="#R"/><use transform="matrix(0.04938271604938272,0,0,0.04938271604938272,45.333333333333336,0)" xlink:href="#L"/><use transform="matrix(0.04938271604938272,0,0,0.04938271604938272,50.27160493827161,0)" xlink:href="#O"/><use transform="matrix(0.04938271604938272,0,0,0.04938271604938272,60.14814814814815,0)" xlink:href="#K"/></g><path fill="#fff" d="M-8 0l5-24 140-142H31l5-24h145l-5 24L36-24h119l-5 24H-8" id="ak"/><g id="t"><use transform="matrix(0.04938271604938272,0,0,0.04938271604938272,0,0)" xlink:href="#ac"/><use transform="matrix(0.04938271604938272,0,0,0.04938271604938272,11.506172839506174,0)" xlink:href="#R"/><use transform="matrix(0.04938271604938272,0,0,0.04938271604938272,15.407407407407408,0)" xlink:href="#K"/><use transform="matrix(0.04938271604938272,0,0,0.04938271604938272,24.296296296296298,0)" xlink:href="#ad"/><use transform="matrix(0.04938271604938272,0,0,0.04938271604938272,34.17283950617284,0)" xlink:href="#I"/><use transform="matrix(0.04938271604938272,0,0,0.04938271604938272,44.04938271604939,0)" xlink:href="#Y"/><use transform="matrix(0.04938271604938272,0,0,0.04938271604938272,47.95061728395062,0)" xlink:href="#R"/><use transform="matrix(0.04938271604938272,0,0,0.04938271604938272,51.851851851851855,0)" xlink:href="#ak"/><use transform="matrix(0.04938271604938272,0,0,0.04938271604938272,60.74074074074075,0)" xlink:href="#I"/><use transform="matrix(0.04938271604938272,0,0,0.04938271604938272,70.61728395061729,0)" xlink:href="#ah"/><use transform="matrix(0.04938271604938272,0,0,0.04938271604938272,79.50617283950618,0)" xlink:href="#af"/><use transform="matrix(0.04938271604938272,0,0,0.04938271604938272,89.38271604938272,0)" xlink:href="#N"/></g><g id="u"><use transform="matrix(0.04938271604938272,0,0,0.04938271604938272,0,0)" xlink:href="#W"/><use transform="matrix(0.04938271604938272,0,0,0.04938271604938272,11.851851851851853,0)" xlink:href="#I"/><use transform="matrix(0.04938271604938272,0,0,0.04938271604938272,21.7283950617284,0)" xlink:href="#M"/><use transform="matrix(0.04938271604938272,0,0,0.04938271604938272,27.604938271604947,0)" xlink:href="#L"/><use transform="matrix(0.04938271604938272,0,0,0.04938271604938272,32.543209876543216,0)" xlink:href="#R"/><use transform="matrix(0.04938271604938272,0,0,0.04938271604938272,36.44444444444445,0)" xlink:href="#U"/><use transform="matrix(0.04938271604938272,0,0,0.04938271604938272,45.33333333333334,0)" xlink:href="#R"/><use transform="matrix(0.04938271604938272,0,0,0.04938271604938272,49.23456790123458,0)" xlink:href="#aj"/><use transform="matrix(0.04938271604938272,0,0,0.04938271604938272,59.111111111111114,0)" xlink:href="#I"/><use transform="matrix(0.04938271604938272,0,0,0.04938271604938272,68.98765432098767,0)" xlink:href="#ah"/><use transform="matrix(0.04938271604938272,0,0,0.04938271604938272,77.87654320987656,0)" xlink:href="#af"/><use transform="matrix(0.04938271604938272,0,0,0.04938271604938272,87.7530864197531,0)" xlink:href="#N"/></g><g id="v"><use transform="matrix(0.04938271604938272,0,0,0.04938271604938272,0,0)" xlink:href="#O"/><use transform="matrix(0.04938271604938272,0,0,0.04938271604938272,9.876543209876544,0)" xlink:href="#V"/></g><g id="w"><use transform="matrix(0.04938271604938272,0,0,0.04938271604938272,0,0)" xlink:href="#W"/><use transform="matrix(0.04938271604938272,0,0,0.04938271604938272,11.851851851851853,0)" xlink:href="#M"/><use transform="matrix(0.04938271604938272,0,0,0.04938271604938272,17.728395061728396,0)" xlink:href="#N"/><use transform="matrix(0.04938271604938272,0,0,0.04938271604938272,27.60493827160494,0)" xlink:href="#Z"/><use transform="matrix(0.04938271604938272,0,0,0.04938271604938272,31.506172839506174,0)" xlink:href="#O"/><use transform="matrix(0.04938271604938272,0,0,0.04938271604938272,41.38271604938272,0)" xlink:href="#L"/><use transform="matrix(0.04938271604938272,0,0,0.04938271604938272,46.320987654320994,0)" xlink:href="#N"/><use transform="matrix(0.04938271604938272,0,0,0.04938271604938272,56.19753086419754,0)" xlink:href="#K"/></g><g id="x"><use transform="matrix(0.04938271604938272,0,0,0.04938271604938272,0,0)" xlink:href="#H"/><use transform="matrix(0.04938271604938272,0,0,0.04938271604938272,12.790123456790125,0)" xlink:href="#N"/><use transform="matrix(0.04938271604938272,0,0,0.04938271604938272,22.66666666666667,0)" xlink:href="#V"/><use transform="matrix(0.04938271604938272,0,0,0.04938271604938272,37.4320987654321,0)" xlink:href="#ad"/><use transform="matrix(0.04938271604938272,0,0,0.04938271604938272,47.308641975308646,0)" xlink:href="#S"/><use transform="matrix(0.04938271604938272,0,0,0.04938271604938272,57.18518518518519,0)" xlink:href="#R"/><use transform="matrix(0.04938271604938272,0,0,0.04938271604938272,61.086419753086425,0)" xlink:href="#U"/><use transform="matrix(0.04938271604938272,0,0,0.04938271604938272,69.97530864197532,0)" xlink:href="#I"/><use transform="matrix(0.04938271604938272,0,0,0.04938271604938272,79.85185185185186,0)" xlink:href="#ah"/><use transform="matrix(0.04938271604938272,0,0,0.04938271604938272,88.74074074074075,0)" xlink:href="#af"/><use transform="matrix(0.04938271604938272,0,0,0.04938271604938272,98.61728395061729,0)" xlink:href="#N"/></g><path fill="#fff" d="M87-220l-18 92h140l-5 28H64L45 0H11l48-248h178l-5 28H87" id="al"/><path fill="#fff" d="M68-162c25-46 127-43 121 31C183-60 169 1 98 4 69 5 53-11 43-31L36 0H5l52-261h31zm88 36c2-27-9-43-34-43-55 0-70 51-70 103 0 29 15 45 43 46 52 0 58-58 61-106" id="am"/><path fill="#fff" d="M127 0L80-88 50-66 37 0H6l51-261h31L57-100l99-90h39l-93 82L161 0h-34" id="an"/><g id="y"><use transform="matrix(0.04938271604938272,0,0,0.04938271604938272,0,0)" xlink:href="#al"/><use transform="matrix(0.04938271604938272,0,0,0.04938271604938272,10.814814814814815,0)" xlink:href="#O"/><use transform="matrix(0.04938271604938272,0,0,0.04938271604938272,20.69135802469136,0)" xlink:href="#O"/><use transform="matrix(0.04938271604938272,0,0,0.04938271604938272,30.567901234567906,0)" xlink:href="#J"/><use transform="matrix(0.04938271604938272,0,0,0.04938271604938272,40.44444444444445,0)" xlink:href="#am"/><use transform="matrix(0.04938271604938272,0,0,0.04938271604938272,50.320987654320994,0)" xlink:href="#I"/><use transform="matrix(0.04938271604938272,0,0,0.04938271604938272,60.19753086419754,0)" xlink:href="#U"/><use transform="matrix(0.04938271604938272,0,0,0.04938271604938272,69.08641975308643,0)" xlink:href="#an"/></g><path fill="#fff" d="M187 0l-14-72H61L19 0h-37l149-248h38L221 0h-34zm-19-99l-22-123L76-99h92" id="ao"/><g id="z"><use transform="matrix(0.04938271604938272,0,0,0.04938271604938272,0,0)" xlink:href="#ao"/><use transform="matrix(0.04938271604938272,0,0,0.04938271604938272,11.506172839506174,0)" xlink:href="#ab"/><use transform="matrix(0.04938271604938272,0,0,0.04938271604938272,20.395061728395063,0)" xlink:href="#I"/><use transform="matrix(0.04938271604938272,0,0,0.04938271604938272,30.271604938271608,0)" xlink:href="#Y"/><use transform="matrix(0.04938271604938272,0,0,0.04938271604938272,34.17283950617284,0)" xlink:href="#R"/><use transform="matrix(0.04938271604938272,0,0,0.04938271604938272,38.074074074074076,0)" xlink:href="#I"/><use transform="matrix(0.04938271604938272,0,0,0.04938271604938272,47.95061728395062,0)" xlink:href="#ah"/><use transform="matrix(0.04938271604938272,0,0,0.04938271604938272,56.83950617283951,0)" xlink:href="#af"/><use transform="matrix(0.04938271604938272,0,0,0.04938271604938272,66.71604938271605,0)" xlink:href="#N"/></g><path fill="#fff" d="M248-139C247-14 144 9 11 0l48-248c105-6 190 8 189 109zm-34 0c1-70-52-87-126-82L50-27c98 7 163-21 164-112" id="ap"/><g id="A"><use transform="matrix(0.04938271604938272,0,0,0.04938271604938272,0,0)" xlink:href="#ap"/><use transform="matrix(0.04938271604938272,0,0,0.04938271604938272,12.790123456790125,0)" xlink:href="#R"/><use transform="matrix(0.04938271604938272,0,0,0.04938271604938272,16.69135802469136,0)" xlink:href="#ab"/><use transform="matrix(0.04938271604938272,0,0,0.04938271604938272,25.58024691358025,0)" xlink:href="#ad"/><use transform="matrix(0.04938271604938272,0,0,0.04938271604938272,35.4567901234568,0)" xlink:href="#Y"/><use transform="matrix(0.04938271604938272,0,0,0.04938271604938272,39.35802469135803,0)" xlink:href="#Q"/><use transform="matrix(0.04938271604938272,0,0,0.04938271604938272,49.23456790123458,0)" xlink:href="#I"/><use transform="matrix(0.04938271604938272,0,0,0.04938271604938272,59.111111111111114,0)" xlink:href="#ah"/><use transform="matrix(0.04938271604938272,0,0,0.04938271604938272,68.00000000000001,0)" xlink:href="#af"/><use transform="matrix(0.04938271604938272,0,0,0.04938271604938272,77.87654320987656,0)" xlink:href="#N"/></g><g id="B"><use transform="matrix(0.04938271604938272,0,0,0.04938271604938272,0,0)" xlink:href="#ao"/><use transform="matrix(0.04938271604938272,0,0,0.04938271604938272,11.851851851851853,0)" xlink:href="#L"/><use transform="matrix(0.04938271604938272,0,0,0.04938271604938272,16.790123456790127,0)" xlink:href="#R"/><use transform="matrix(0.04938271604938272,0,0,0.04938271604938272,20.69135802469136,0)" xlink:href="#ab"/><use transform="matrix(0.04938271604938272,0,0,0.04938271604938272,29.58024691358025,0)" xlink:href="#R"/><use transform="matrix(0.04938271604938272,0,0,0.04938271604938272,33.48148148148149,0)" xlink:href="#J"/><use transform="matrix(0.04938271604938272,0,0,0.04938271604938272,43.35802469135803,0)" xlink:href="#I"/><use transform="matrix(0.04938271604938272,0,0,0.04938271604938272,53.23456790123457,0)" xlink:href="#J"/><use transform="matrix(0.04938271604938272,0,0,0.04938271604938272,63.111111111111114,0)" xlink:href="#O"/><use transform="matrix(0.04938271604938272,0,0,0.04938271604938272,72.98765432098767,0)" xlink:href="#K"/></g><use transform="matrix(0.04938271604938272,0,0,0.04938271604938272,0,0)" xlink:href="#O" id="C"/><g id="D"><use transform="matrix(0.04938271604938272,0,0,0.04938271604938272,0,0)" xlink:href="#ac"/><use transform="matrix(0.04938271604938272,0,0,0.04938271604938272,11.209876543209878,0)" xlink:href="#I"/><use transform="matrix(0.04938271604938272,0,0,0.04938271604938272,21.086419753086425,0)" xlink:href="#Q"/><use transform="matrix(0.04938271604938272,0,0,0.04938271604938272,30.962962962962973,0)" xlink:href="#I"/><use transform="matrix(0.04938271604938272,0,0,0.04938271604938272,40.83950617283951,0)" xlink:href="#K"/></g><path d="M197 0v-115H63V0H30v-248h33v105h134v-105h34V0h-34" id="aq"/><path d="M140-251c81 0 123 46 123 126C263-46 219 4 140 4 59 4 17-45 17-125s42-126 123-126zm0 227c63 0 89-41 89-101s-29-99-89-99c-61 0-89 39-89 99S79-25 140-24" id="ar"/><path d="M185-189c-5-48-123-54-124 2 14 75 158 14 163 119 3 78-121 87-175 55-17-10-28-26-33-46l33-7c5 56 141 63 141-1 0-78-155-14-162-118-5-82 145-84 179-34 5 7 8 16 11 25" id="as"/><path d="M127-220V0H93v-220H8v-28h204v28h-85" id="at"/><g id="E"><use transform="matrix(0.06172839506172839,0,0,0.06172839506172839,0,0)" xlink:href="#aq"/><use transform="matrix(0.06172839506172839,0,0,0.06172839506172839,15.987654320987653,0)" xlink:href="#ar"/><use transform="matrix(0.06172839506172839,0,0,0.06172839506172839,33.2716049382716,0)" xlink:href="#as"/><use transform="matrix(0.06172839506172839,0,0,0.06172839506172839,48.08641975308642,0)" xlink:href="#at"/></g><path d="M137 0h-34L2-248h35l83 218 83-218h36" id="au"/><path d="M30 0v-248h33v221h125V0H30" id="av"/><path d="M232-93c-1 65-40 97-104 97C67 4 28-28 28-90v-158h33c8 89-33 224 67 224 102 0 64-133 71-224h33v155" id="aw"/><path d="M190 0L58-211 59 0H30v-248h39L202-35l-2-213h31V0h-41" id="ax"/><path d="M96-269c9-18 26-28 38-43h37v5l-55 38H96zM205 0l-28-72H64L36 0H1l101-248h38L239 0h-34zm-38-99l-47-123c-12 45-31 82-46 123h93" id="ay"/><path d="M233-177c-1 41-23 64-60 70L243 0h-38l-65-103H63V0H30v-248c88 3 205-21 203 71zM63-129c60-2 137 13 137-47 0-61-80-42-137-45v92" id="az"/><path d="M33 0v-248h34V0H33" id="aA"/><g id="F"><use transform="matrix(0.06172839506172839,0,0,0.06172839506172839,0,0)" xlink:href="#au"/><use transform="matrix(0.06172839506172839,0,0,0.06172839506172839,14.814814814814813,0)" xlink:href="#ar"/><use transform="matrix(0.06172839506172839,0,0,0.06172839506172839,32.09876543209876,0)" xlink:href="#av"/><use transform="matrix(0.06172839506172839,0,0,0.06172839506172839,44.444444444444436,0)" xlink:href="#aw"/><use transform="matrix(0.06172839506172839,0,0,0.06172839506172839,60.43209876543209,0)" xlink:href="#ax"/><use transform="matrix(0.06172839506172839,0,0,0.06172839506172839,76.41975308641975,0)" xlink:href="#at"/><use transform="matrix(0.06172839506172839,0,0,0.06172839506172839,89.93827160493827,0)" xlink:href="#ay"/><use transform="matrix(0.06172839506172839,0,0,0.06172839506172839,104.75308641975307,0)" xlink:href="#az"/><use transform="matrix(0.06172839506172839,0,0,0.06172839506172839,120.74074074074073,0)" xlink:href="#aA"/><use transform="matrix(0.06172839506172839,0,0,0.06172839506172839,126.91358024691357,0)" xlink:href="#ar"/></g><path d="M143 4C61 4 22-44 18-125c-5-107 100-154 193-111 17 8 29 25 37 43l-32 9c-13-25-37-40-76-40-61 0-88 39-88 99 0 61 29 100 91 101 35 0 62-11 79-27v-45h-74v-28h105v86C228-13 192 4 143 4" id="aB"/><g id="G"><use transform="matrix(0.06172839506172839,0,0,0.06172839506172839,0,0)" xlink:href="#ar"/><use transform="matrix(0.06172839506172839,0,0,0.06172839506172839,17.28395061728395,0)" xlink:href="#ax"/><use transform="matrix(0.06172839506172839,0,0,0.06172839506172839,33.2716049382716,0)" xlink:href="#aB"/></g></defs></g></svg>